<svg xmlns="http://www.w3.org/2000/svg" xmlns:xlink="http://www.w3.org/1999/xlink" viewBox="0 0 709.51 781.81"><defs><linearGradient id="a" x1="461.49" x2="483.81" y1="-50.91" y2="763.64" gradientUnits="userSpaceOnUse"><stop offset="0" stop-color="#3f50a8"/><stop offset=".83" stop-color="#283593"/></linearGradient><linearGradient id="b" x1="333.08" x2="355.39" y1="-47.39" y2="767.16" xlink:href="#a"/><linearGradient id="c" x1="442.43" x2="464.75" y1="-50.39" y2="764.16" xlink:href="#a"/></defs><path fill="url(#a)" d="M232.45,86.67l419.32,154a2.19,2.19,0,0,0,1.18-.75l56.56-60.57L221.18,0,232,85.59A1.73,1.73,0,0,0,232.45,86.67Z"/><path fill="url(#b)" d="M651.71,262.48a21.93,21.93,0,0,1-6.15-.88c-.44-.14-.89-.28-1.33-.44l-419.35-154a21.38,21.38,0,0,1-2.08-.9,23,23,0,0,1-12.48-18l-5.61-44.21L0,601.69,489.17,781.81,691.55,230.59l-22.61,24.22A23.68,23.68,0,0,1,651.71,262.48ZM309.1,301.08h22a9.47,9.47,0,0,1,9.47,9.47V398H309.1ZM163.34,390.62l-4.58-6.69c28.55-17.21,45.32-43.64,47.44-81.51h32.67c-4.75,27.76,13.07,54.5,51.52,80.18l-5.35,8c-24.51-4.49-45.5-17.28-62.81-38.76C199.24,380.47,180.09,391.15,163.34,390.62ZM345.7,494.18H192.39a12.92,12.92,0,0,1-12.92-12.92V446.74H309.1V428.86a8.84,8.84,0,0,0-8.85-8.84H186.83a7.37,7.37,0,0,1-7.36-7.37v-2H328.36a12.26,12.26,0,0,1,12.26,12.26v33.69H211.54v22.46a5.76,5.76,0,0,0,5.76,5.76H338.84a6.86,6.86,0,0,1,6.86,6.86ZM369.23,406l-2.56-8c49.16-4.3,82.06-24.68,79.4-80.2H381.69a11.12,11.12,0,0,1-11.12-11.12v-.24h108.5C480.52,394.45,429.62,407.05,369.23,406Zm165.38,87.87H392.18a13.93,13.93,0,0,1-13.93-13.93V427H520.68A13.93,13.93,0,0,1,534.61,441Zm21.53-117.56-21.2.29-.18,36.75H503.24V300.78h22c5.23,0,9.47,4.92,9.47,11l.18,54.11,13.64.09a7.6,7.6,0,0,1,7.56,7.61Z"/><path fill="url(#c)" d="M495.74,437.05H409.66v40.57a7.49,7.49,0,0,0,7.49,7.49h86.09V444.55A7.5,7.5,0,0,0,495.74,437.05Z"/></svg>