<svg data-name="Livello 1" id="Livello_1" viewBox="0 0 32.57 40" xmlns="http://www.w3.org/2000/svg">
    <path
        d="M35.25,13.64a9,9,0,0,0-4.33,7.62,8.82,8.82,0,0,0,5.36,8.09A21,21,0,0,1,33.53,35c-1.7,2.49-3.5,5-6.21,5s-3.42-1.63-6.6-1.63S16.61,40,14.11,40s-4.22-2.28-6.22-5.08A24.46,24.46,0,0,1,3.72,21.67c0-7.77,5.06-11.9,10-11.9,2.64,0,4.85,1.74,6.51,1.74s4.05-1.84,7.05-1.84A9.46,9.46,0,0,1,35.25,13.64ZM25.89,6.38A9,9,0,0,0,28,.8a4.26,4.26,0,0,0-.08-.8,9,9,0,0,0-5.88,3,8.65,8.65,0,0,0-2.2,5.42,3.61,3.61,0,0,0,.07.73,3.31,3.31,0,0,0,.55,0A7.79,7.79,0,0,0,25.89,6.38Z"
        fill="#fff" transform="translate(-3.72)" />
</svg>
