<svg viewBox="0 0 40 40" xmlns="http://www.w3.org/2000/svg">
    <g data-name="Layer 2" id="Layer_2">
        <g data-name="Layer 1" id="Layer_1-2">
            <g data-name="Layer 2" id="Layer_2-2">
                <g data-name="Layer 1-2" id="Layer_1-2-2">
                    <path d="M20,0A20,20,0,1,0,40,20,20,20,0,0,0,20,0Z" fill="#4267b2" />
                    <path
                        d="M22.71,25.26h5.17L28.69,20h-6V17.17c0-2.18.71-4.12,2.75-4.12h3.29V8.42a26.92,26.92,0,0,0-4.11-.25c-4.81,0-7.63,2.55-7.63,8.34V20H12v5.26h5V39.77A20.28,20.28,0,0,0,20,40a19.62,19.62,0,0,0,2.71-.19Z"
                        fill="#fff" />
                </g>
            </g>
        </g>
    </g>
</svg>
