<svg xmlns="http://www.w3.org/2000/svg" id="Layer_1" data-name="Layer 1" viewBox="0 0 40 40"><g id="Layer_2" data-name="Layer 2"><g id="Layer_1-2" data-name="Layer 1-2"><path fill="#ffc107" d="M39.61,16.13H38V16H20v8H31.3A12,12,0,1,1,28,11.1l5.71-5.71A19.94,19.94,0,1,0,40,20,21.42,21.42,0,0,0,39.61,16.13Z" transform="translate(0 0)"/><path fill="#ff3d00" d="M2.3,10.74l6.57,4.82A12,12,0,0,1,24.44,8.92,11.78,11.78,0,0,1,28,11.1l5.71-5.71A20,20,0,0,0,2.3,10.74Z" transform="translate(0 0)"/><path fill="#4caf50" d="M20,40a20,20,0,0,0,13.41-5.18l-6.2-5.23a12,12,0,0,1-16.77-2.31,12.18,12.18,0,0,1-1.73-3.19l-6.51,5A20,20,0,0,0,20,40Z" transform="translate(0 0)"/><path fill="#1976d2" d="M39.61,16.13H38V16H20v8H31.3a11.93,11.93,0,0,1-4.09,5.56h0l6.2,5.22A19.3,19.3,0,0,0,40,20,21.42,21.42,0,0,0,39.61,16.13Z" transform="translate(0 0)"/></g></g></svg>