<svg xmlns="http://www.w3.org/2000/svg" viewBox="0 0 40 40"><g id="Layer_2" data-name="Layer 2"><g id="Layer_1-2" data-name="Layer 1"><circle cx="20" cy="20" r="20" fill="#fff"/><path fill="#ffc107" d="M33.73,17.26H32.6V17.2H20v5.6h7.91a8.41,8.41,0,1,1-2.34-9.07l4-4A14,14,0,1,0,34,20,14.55,14.55,0,0,0,33.73,17.26Z"/><path fill="#ff3d00" d="M7.61,13.48l4.6,3.38a8.38,8.38,0,0,1,13.36-3.13l4-4A14,14,0,0,0,7.61,13.48Z"/><path fill="#4caf50" d="M20,34a14,14,0,0,0,9.39-3.63L25.05,26.7A8.38,8.38,0,0,1,12.1,22.84L7.54,26.36A14,14,0,0,0,20,34Z"/><path fill="#1976d2" d="M33.73,17.26H32.6V17.2H20v5.6h7.91a8.35,8.35,0,0,1-2.86,3.9h0l4.34,3.66A13.54,13.54,0,0,0,34,20,14.55,14.55,0,0,0,33.73,17.26Z"/></g></g></svg>