<svg xmlns="http://www.w3.org/2000/svg" id="Layer_1" data-name="Layer 1" viewBox="0 0 56 56"><path d="M28,2.45C12.71,2.45.31,12.22.31,24.28c0,7.79,5.18,14.63,13,18.5l-2.82,10s-.05.47.25.65a.83.83,0,0,0,.66,0c.87-.12,10.1-6.61,11.7-7.73a36.07,36.07,0,0,0,4.92.34c15.29,0,27.69-9.77,27.69-21.83S43.29,2.45,28,2.45Z"/><path fill="#fee500" d="M13,31.9a1.56,1.56,0,0,1-1.6-1.52v-9.5H8.93a1.57,1.57,0,1,1,0-3.13h8.18a1.57,1.57,0,1,1,0,3.13H14.62v9.5A1.56,1.56,0,0,1,13,31.9Zm14,0a1.3,1.3,0,0,1-1.33-.71l-.79-2.07H20l-.79,2.08a1.33,1.33,0,0,1-1.33.7,2.56,2.56,0,0,1-1-.22c-.44-.2-.86-.76-.38-2.27l3.82-10.06a2.41,2.41,0,0,1,2.13-1.57,2.4,2.4,0,0,1,2.13,1.58l3.82,10.05c.49,1.5.06,2.07-.38,2.27a2.51,2.51,0,0,1-1,.22Zm-3-5.61-1.6-4.53-1.59,4.53ZM31,31.67a1.51,1.51,0,0,1-1.53-1.47V19.35a1.63,1.63,0,0,1,3.26,0v9.39h3.4a1.47,1.47,0,1,1,0,2.93Zm8.87.21a1.6,1.6,0,0,1-1.59-1.6V19.35a1.6,1.6,0,0,1,3.19,0v3.44l4.46-4.46A1.2,1.2,0,0,1,46.8,18a1.62,1.62,0,0,1,1.57,1.48,1.22,1.22,0,0,1-.35,1l-3.64,3.64,3.93,5.21A1.59,1.59,0,0,1,48,31.52a1.56,1.56,0,0,1-1,.32,1.62,1.62,0,0,1-1.28-.63l-3.74-5-.56.56v3.48a1.6,1.6,0,0,1-1.59,1.6Z"/></svg>