<?xml version="1.0" encoding="utf-8"?><!-- Generator: Adobe Illustrator 26.3.1, SVG Export Plug-In . SVG Version: 6.00 Build 0)  -->
<svg style="enable-background:new 0 0 512 512;" id="Layer_1" version="1.1" viewBox="0 0 512 512"
    x="0px" xmlns="http://www.w3.org/2000/svg" y="0px" xml:space="preserve">
<g>
	<polygon points="189.5,240.4 218.9,240.4 204.2,198.6 	" />
    <path d="M255.9,20.1C114.6,20.1,0,110.4,0,221.9c0,72,47.9,135.2,120.1,171l-26.1,92.4c0,0-0.5,4.3,2.3,6c1.9,0.8,4.2,0.8,6.1,0
		c8-1.1,93.3-61.1,108.1-71.4c15.1,2.1,30.3,3.1,45.5,3.1C397.4,423,512,332.7,512,221.2S397.2,20.1,255.9,20.1z M132.3,278.2
		c-0.2,8-6.8,14.3-14.8,14.1c-0.1,0-0.1,0-0.2,0c-8,0.2-14.6-6.1-14.8-14c0,0,0,0,0,0v-87.8H79.7c-8,0.6-15-5.3-15.6-13.3
		s5.3-15,13.3-15.6c0.8-0.1,1.5-0.1,2.3,0h75.6c8-0.6,15,5.3,15.6,13.3c0.6,8-5.3,15-13.3,15.6c-0.8,0.1-1.5,0.1-2.3,0h-23V278.2z
		 M256.1,290.2c-2.9,1.3-6.1,2-9.2,2h-0.2c-5.1,0.7-10-2-12.3-6.6l-7.3-19.1H182l-7.3,19.2c-2.4,4.5-7.3,7.1-12.3,6.5
		c-3.2,0-6.3-0.7-9.2-2c-4.1-1.8-7.9-7-3.5-21l35.3-93c3.1-8.3,10.8-14,19.7-14.5c8.9,0.5,16.7,6.2,19.7,14.6l35.3,92.9
		C264.1,283.1,260.2,288.4,256.1,290.2z M333.3,290.2c-0.7,0.1-1.5,0.1-2.2,0l-47.4,0c-7.6,0.1-13.9-6-14.1-13.6V176.3
		c0-8.3,6.7-15.1,15.1-15.1c8.3,0,15.1,6.7,15.1,15.1v86.8H331c7.5-0.6,14,4.9,14.7,12.4C346.3,283,340.8,289.5,333.3,290.2z
		 M440.7,288.8c-2.6,2-5.9,3.1-9.2,3c-4.6,0-9-2.2-11.8-5.8l-34.6-46.2l-5.2,5.2V277c0,8.1-6.6,14.7-14.7,14.8l0.4,0.3
		c-8.1-0.1-14.7-6.7-14.7-14.8v-101c0.6-8.1,7.8-14.2,15.9-13.6c7.2,0.6,13,6.3,13.6,13.6v31.8l41.2-41.2c2.2-2.1,5.1-3.2,8-3
		c7.6,0.2,13.9,6.1,14.5,13.7c0.4,3.4-0.8,6.8-3.2,9.2l-33.6,33.6l36.3,48.2C448.3,274.9,447,283.9,440.7,288.8z" />
</g>
</svg>
