<svg xmlns="http://www.w3.org/2000/svg" id="Layer_2" viewBox="0 0 512 512"><g id="Line"><path d="m457.14,185.45v-2.6C457.14,82.03,375.12,0,274.29,0h-36.57C136.88,0,54.86,82.03,54.86,182.86v2.6C23.4,193.63,0,222.02,0,256v36.57c0,40.33,32.81,73.14,73.14,73.14h36.57c10.1,0,18.29-8.19,18.29-18.29v-146.29c0-10.1-8.19-18.29-18.29-18.29h-18.29c0-80.66,65.62-146.29,146.29-146.29h36.57c80.66,0,146.29,65.63,146.29,146.29h-18.29c-10.1,0-18.29,8.19-18.29,18.29v146.29c0,10.1,8.19,18.29,18.29,18.29h17.39c-5.43,57.2-36.32,69.68-57.57,72.36-7.78-20.84-27.73-35.79-51.25-35.79-30.25,0-54.86,24.61-54.86,54.86s24.61,54.86,54.86,54.86c24.11,0,44.41-15.74,51.75-37.4,56.73-5.76,89.61-44.6,94.01-111.32,31.73-7.99,55.39-36.54,55.39-70.71v-36.57c0-33.98-23.4-62.37-54.86-70.55ZM91.43,329.14h-18.29c-20.17,0-36.57-16.4-36.57-36.57v-36.57c0-20.17,16.4-36.57,36.57-36.57h18.29v109.71Zm219.43,146.29c-10.08,0-18.29-8.21-18.29-18.29s8.21-18.29,18.29-18.29,18.29,8.21,18.29,18.29-8.21,18.29-18.29,18.29Zm164.57-182.86c0,20.17-16.4,36.57-36.57,36.57h-18.29v-109.71h18.29c20.17,0,36.57,16.4,36.57,36.57v36.57Z"/></g></svg>