<svg viewBox="0 0 851 1380" xmlns="http://www.w3.org/2000/svg">
    <path d="M823.26,656.65h19.23a3.33,3.33,0,1,0,0-6.66H823.1c.1,1.83.16,3.67.16,5.55Z"
        fill="#87827b" />
    <path d="M842.49,668.48a3.33,3.33,0,1,0,0-6.66H823.25c0,2.07,0,4.37,0,6.66Z" fill="#87827b" />
    <path
        d="M823.13,681.06h19.36a3.33,3.33,0,1,0,0-6.66H823.2c0,2.7,0,5-.06,6.25C823.14,680.79,823.13,680.92,823.13,681.06Z"
        fill="#87827b" />
    <path
        d="M845.68,639.63H822A102.29,102.29,0,0,1,823.1,650h19.39a3.33,3.33,0,1,1,0,6.66H823.26c0,1.32,0,3.13,0,5.17h19.24a3.33,3.33,0,1,1,0,6.66H823.23c0,2,0,4.08,0,5.92h19.29a3.33,3.33,0,1,1,0,6.66H823.13c0,1.74-.07,3.46-.12,5.18h19.48a3.34,3.34,0,0,1,3.33,3.33h0a.82.82,0,0,1,0,.36h0a3.34,3.34,0,0,1-3.33,3.33H823c0,1.72.09,3.44.12,5.18h19.36a3.33,3.33,0,1,1,0,6.66H823.2c0,1.84,0,3.87,0,5.92h19.26a3.33,3.33,0,1,1,0,6.66H823.25c0,2,0,3.85,0,5.17h19.23a3.33,3.33,0,1,1,0,6.66H823.1A102.29,102.29,0,0,1,822,739.87h23.67a5.35,5.35,0,0,0,5.32-5.33V645A5.35,5.35,0,0,0,845.68,639.63Z"
        fill="#9d978f" />
    <path d="M823.26,722.85h19.23a3.33,3.33,0,1,1,0,6.66H823.1c.1-1.83.16-3.67.16-5.55Z"
        fill="#87827b" />
    <path d="M842.49,711a3.33,3.33,0,1,1,0,6.66H823.25c0-2.07,0-4.37,0-6.66Z" fill="#87827b" />
    <path
        d="M823.13,698.44h19.36a3.33,3.33,0,1,1,0,6.66H823.2c0-2.7,0-5-.06-6.25C823.14,698.71,823.13,698.58,823.13,698.44Z"
        fill="#87827b" />
    <path
        d="M845.82,689.57a3.34,3.34,0,0,0-3.33-3.33H823l-.09,3.33h0v.36h0l.09,3.33h19.48a3.34,3.34,0,0,0,3.33-3.33Z"
        fill="#87827b" />
    <path
        d="M823.1,642A102.29,102.29,0,0,0,822,631.63c-4.63-29.72-13.55-46.33-29.82-73.8-7-11.88-15.43-31.46-26.39-50q-4.9-9.12-10.26-18c-67.76-111.32-190.25-185.67-330.1-185.67-148.1,0-276.72,83.37-341.5,205.75q-1.62,3.18-3.21,6.37,1.59-3.19,3.21-6.37-6.66,12.55-12.4,25.67c-18.9,41.66-27.6,85.35-32.25,130.31-1.11,10.73-.37,42.54,0,47.72,3.22,45.08,13.35,88.65,32.25,130.31q5.74,13.1,12.4,25.67c64.78,122.38,193.4,205.75,341.5,205.75,139.85,0,262.34-74.35,330.1-185.67q5.36-8.82,10.26-18c11-18.58,19.36-38.16,26.39-50,16.27-27.47,25.19-44.08,29.82-73.8a102.29,102.29,0,0,0,1.09-10.36c.1-1.83.16-3.67.16-5.55V647.54C823.26,645.66,823.2,643.82,823.1,642ZM63,822.8q2.37,6.44,5,12.75Q65.41,829.24,63,822.8ZM425.44,1031C236.55,1031,83.31,878.38,82.21,689.75c1.1-188.63,154.34-341.21,343.23-341.21S767.57,501.12,768.67,689.75C767.57,878.38,614.33,1031,425.44,1031Z"
        fill="#121212" />
    <path
        d="M768.67,689.75v-.18h0c-1.2-188.55-154.4-341-343.23-341S83.41,501,82.22,689.57h0v.36h0c1.19,188.55,154.39,341,343.22,341s342-152.48,343.23-341h0Zm-344,310.88c-172.14,0-311.8-139-312.9-310.88,1.1-171.88,140.76-310.88,312.9-310.88s311.8,139,312.9,310.88C736.5,861.63,596.84,1000.63,424.7,1000.63Z"
        fill="#494949" />
    <path
        d="M737.6,689.75v-.18h0c-1.2-171.8-140.82-310.7-312.9-310.7S113,517.77,111.81,689.57h0v.36h0c1.19,171.8,140.82,310.7,312.89,310.7s311.7-138.9,312.9-310.7h0Z"
        fill="#fff" />
    <path
        d="M234.22,231v1a11.11,11.11,0,0,0,3.28,7.89,12.12,12.12,0,0,0,1.65,1.37,11.57,11.57,0,0,0,1.9,1,11.16,11.16,0,0,0,4.33.88H604.76A11.21,11.21,0,0,0,615.93,232v-1a12.25,12.25,0,0,1,12.25-12.25h12.9q-1-5.19-1.9-10.36-1.32-7.41-2.55-14.79h-20.7v16.54a6.41,6.41,0,0,1-6.39,6.39H240.6a6.41,6.41,0,0,1-6.38-6.39V193.57H214q-1.25,7.38-2.57,14.79-.93,5.17-1.91,10.36H222A12.26,12.26,0,0,1,234.22,231Z"
        fill="#121212" />
    <path d="M239.15,241.22a12.12,12.12,0,0,1-1.65-1.37A12.12,12.12,0,0,0,239.15,241.22Z"
        fill="#1e1e1e" />
    <path d="M241.05,242.25a11.57,11.57,0,0,1-1.9-1A11.57,11.57,0,0,0,241.05,242.25Z"
        fill="#1e1e1e" />
    <path
        d="M660.68,305.64q-3.7-13.67-7-27.59c-4.71-19.62-8.88-39.51-12.57-59.33h-12.9A12.25,12.25,0,0,0,615.93,231v1a11.21,11.21,0,0,1-11.17,11.17H245.38a11.16,11.16,0,0,1-4.33-.88,11.57,11.57,0,0,1-1.9-1,12.12,12.12,0,0,1-1.65-1.37,11.11,11.11,0,0,1-3.28-7.89v-1A12.26,12.26,0,0,0,222,218.72H209.55c-4,21.38-8.59,42.84-13.8,64q-2.67,10.81-5.55,21.49C173.28,366.5,122,435.19,83.94,509.91c64.78-122.38,193.4-205.75,341.5-205.75,139.85,0,262.34,74.35,330.1,185.67C719.23,423.42,676,361.94,660.68,305.64Z"
        fill="#1e1e1e" />
    <path
        d="M611.56,79.28,609,68.4A87.12,87.12,0,0,0,525.31.89c-.78,0-1.57,0-2.35.08A1238.32,1238.32,0,0,1,327.88,1c-.77-.06-1.56-.09-2.34-.08a87.14,87.14,0,0,0-83.72,67.44q-1.23,5.28-2.48,10.69Q422.48,85.91,611.56,79.28Z"
        fill="#1e1e1e" />
    <path
        d="M236.76,90.15C227,132.4,216.93,176.38,214,193.57h20.19v16.54a6.41,6.41,0,0,0,6.38,6.39H609.54a6.41,6.41,0,0,0,6.39-6.39V193.57h20.7c-2.87-17.12-12.76-60.83-22.45-102.94Q425.71,99.32,236.76,90.15Z"
        fill="#1e1e1e" />
    <path
        d="M239.34,79c-.85,3.68-1.71,7.4-2.58,11.13q189,9.15,377.42.48-1.32-5.7-2.62-11.35Q422.61,85.6,239.34,79Z"
        fill="#121212" />
    <path
        d="M615.93,1148.53v-1a11.21,11.21,0,0,0-11.17-11.17H245.38a11.16,11.16,0,0,0-4.33.88,11.57,11.57,0,0,0-1.9,1,12.12,12.12,0,0,0-1.65,1.37,11.11,11.11,0,0,0-3.28,7.89v1A12.26,12.26,0,0,1,222,1160.78H209.55q1,5.19,1.91,10.36,1.32,7.41,2.57,14.79h20.19v-16.54a6.41,6.41,0,0,1,6.38-6.39H609.54a6.41,6.41,0,0,1,6.39,6.39v16.54h20.7q1.23-7.38,2.55-14.79.93-5.17,1.9-10.36h-12.9A12.25,12.25,0,0,1,615.93,1148.53Z"
        fill="#121212" />
    <path d="M237.5,1139.65a12.12,12.12,0,0,1,1.65-1.37A12.12,12.12,0,0,0,237.5,1139.65Z"
        fill="#1e1e1e" />
    <path d="M239.15,1138.28a11.57,11.57,0,0,1,1.9-1A11.57,11.57,0,0,0,239.15,1138.28Z"
        fill="#1e1e1e" />
    <path
        d="M425.44,1075.34c-148.1,0-276.72-83.37-341.5-205.75C122,944.31,173.28,1013,190.2,1075.34q2.9,10.67,5.55,21.49c5.21,21.11,9.78,42.57,13.8,64H222a12.26,12.26,0,0,0,12.26-12.25v-1a11.11,11.11,0,0,1,3.28-7.89,12.12,12.12,0,0,1,1.65-1.37,11.57,11.57,0,0,1,1.9-1,11.16,11.16,0,0,1,4.33-.88H604.76a11.21,11.21,0,0,1,11.17,11.17v1a12.25,12.25,0,0,0,12.25,12.25h12.9c3.69-19.82,7.86-39.71,12.57-59.33q3.35-13.9,7-27.59c15.28-56.3,58.55-117.78,94.86-184.19C687.78,1001,565.29,1075.34,425.44,1075.34Z"
        fill="#1e1e1e" />
    <path
        d="M611.56,1300.1,609,1311a87.13,87.13,0,0,1-84.91,67.52c-71.23-2.9-138.4-3.63-197.41,0a87.15,87.15,0,0,1-84.9-67.46c-.82-3.51-1.64-7.08-2.48-10.68Q422.48,1293.47,611.56,1300.1Z"
        fill="#1e1e1e" />
    <path
        d="M236.76,1289.22C227,1247,216.93,1203,214,1185.81h20.19v-16.54a6.4,6.4,0,0,1,6.38-6.39H609.54a6.41,6.41,0,0,1,6.39,6.39v16.54h20.7c-2.87,17.11-12.76,60.83-22.45,102.93Q425.71,1280.07,236.76,1289.22Z"
        fill="#1e1e1e" />
    <path
        d="M239.34,1300.36q-1.28-5.53-2.58-11.14,189-9.13,377.42-.48-1.32,5.71-2.62,11.36Q422.61,1293.77,239.34,1300.36Z"
        fill="#121212" />
</svg>
